<?xml version="1.0" encoding="UTF-8" standalone="no"?>
<!-- Generator: Adobe Illustrator 16.0.0, SVG Export Plug-In . SVG Version: 6.00 Build 0)  -->

<svg
   version="1.1"
   id="Layer_1"
   x="0px"
   y="0px"
   width="611.834px"
   height="706.506px"
   viewBox="0.083 42.123 611.834 706.506"
   enable-background="new 0.083 42.123 611.834 706.506"
   xml:space="preserve"
   sodipodi:docname="fpp3.svg"
   inkscape:version="1.3 (1:1.3+202307231459+0e150ed6c4)"
   xmlns:inkscape="http://www.inkscape.org/namespaces/inkscape"
   xmlns:sodipodi="http://sodipodi.sourceforge.net/DTD/sodipodi-0.dtd"
   xmlns="http://www.w3.org/2000/svg"
   xmlns:svg="http://www.w3.org/2000/svg"><defs
   id="defs18"><inkscape:path-effect
     effect="lattice2"
     gridpoint0="239.28969,218.30216"
     gridpoint1="264.96923,220.03901"
     gridpoint2="235.60014,246.51185"
     gridpoint3="263.0265,247.32142"
     gridpoint4="245.48941,218.55169"
     gridpoint5="258.40026,220.03901"
     gridpoint6="243.68027,247.0465"
     gridpoint7="256.33829,247.48804"
     gridpoint8x9="251.83129,220.03901"
     gridpoint10x11="250.53081,246.80332"
     gridpoint12="238.69335,226.6079"
     gridpoint13="263.852,226.6079"
     gridpoint14="238.69335,239.74569"
     gridpoint15="264.26021,239.74569"
     gridpoint16="245.26232,226.6079"
     gridpoint17="258.40026,226.6079"
     gridpoint18="246.0088,241.08087"
     gridpoint19="258.40026,239.74569"
     gridpoint20x21="251.83129,226.6079"
     gridpoint22x23="253.081,241.42659"
     gridpoint24x26="238.69335,233.17679"
     gridpoint25x27="264.21487,233.17679"
     gridpoint28x30="246.28462,234.14428"
     gridpoint29x31="258.66912,233.17679"
     gridpoint32x33x34x35="252.25655,234.46355"
     id="path-effect20"
     is_visible="true"
     lpeversion="1"
     horizontal_mirror="false"
     vertical_mirror="false"
     perimetral="false"
     live_update="true" /><inkscape:path-effect
     effect="lattice2"
     gridpoint0="154.93398,243.43062"
     gridpoint1="289.58487,242.00885"
     gridpoint2="125.46412,379.74253"
     gridpoint3="287.33007,379.76231"
     gridpoint4="180.61379,239.43918"
     gridpoint5="250.47846,240.75162"
     gridpoint6="179.78809,371.98698"
     gridpoint7="250.91586,373.54409"
     gridpoint8x9="216.53488,239.91077"
     gridpoint10x11="215.23202,369.00082"
     gridpoint12="150.14697,276.86308"
     gridpoint13="285.04259,276.86308"
     gridpoint14="140.53026,347.22783"
     gridpoint15="285.04259,343.72799"
     gridpoint16="181.24724,268.81325"
     gridpoint17="250.13731,276.86308"
     gridpoint18="180.32674,343.72799"
     gridpoint19="250.13731,340.61133"
     gridpoint20x21="215.75109,276.4854"
     gridpoint22x23="214.49306,337.62286"
     gridpoint24x26="143.70748,310.6992"
     gridpoint25x27="285.04259,310.29554"
     gridpoint28x30="180.32674,310.29554"
     gridpoint29x31="250.13731,310.29554"
     gridpoint32x33x34x35="213.90517,311.47045"
     id="path-effect19"
     is_visible="true"
     lpeversion="1"
     horizontal_mirror="false"
     vertical_mirror="false"
     perimetral="false"
     live_update="true" /></defs><sodipodi:namedview
   id="namedview18"
   pagecolor="#ffffff"
   bordercolor="#666666"
   borderopacity="1.0"
   inkscape:showpageshadow="2"
   inkscape:pageopacity="0.0"
   inkscape:pagecheckerboard="0"
   inkscape:deskcolor="#d1d1d1"
   inkscape:zoom="1.2788562"
   inkscape:cx="214.64493"
   inkscape:cy="365.56104"
   inkscape:window-width="1872"
   inkscape:window-height="1051"
   inkscape:window-x="48"
   inkscape:window-y="0"
   inkscape:window-maximized="1"
   inkscape:current-layer="Layer_1" />&#10;<polygon
   id="fill"
   fill="#428BCA"
   points="611.917,572.053 305.999,748.657 0.083,572.05 0.083,218.756 305.999,42.151   611.917,218.756 "
   style="fill:#6d3232;fill-opacity:1" />&#10;<linearGradient
   id="gradient_1_"
   gradientUnits="userSpaceOnUse"
   x1="305.6709"
   y1="404.7256"
   x2="305.6709"
   y2="134.4175"
   gradientTransform="matrix(1 0 0 1 0 -80)">&#10;	<stop
   offset="0"
   style="stop-color:#FFFFFF;stop-opacity:0"
   id="stop1" />&#10;	<stop
   offset="1"
   style="stop-color:#FFFFFF"
   id="stop2" />&#10;</linearGradient>&#10;<path
   id="gradient"
   opacity="0.2"
   fill="url(#gradient_1_)"
   d="M305.591,54.417L59.22,197.048  c36.979,74.535,133.292,127.677,246.28,127.677c113.336,0,209.895-53.47,246.621-128.366L305.591,54.417z" />&#10;&#10;<g
   id="g18">&#10;	<path
   fill-rule="evenodd"
   clip-rule="evenodd"
   fill="#FFFFFF"
   d="M536.283,431.302c-0.55,0.055-0.915,0.112-1.28,0.122   c-21.341,0.594-42.671,0.174-63.991-0.785c-17.391-0.78-34.771-1.794-52.167-2.393c-19.039-0.658-38.089-1.143-57.136-1.34   c-9.808-0.101-19.625,0.573-29.435,0.954c-0.931,0.036-1.291-0.259-1.631-1.053c-1.995-4.665-4.652-8.931-7.998-12.754   c-2.858-3.263-6.049-6.096-10.453-7.677c0.479-0.241,0.76-0.425,1.064-0.531c24.967-8.734,50.632-13.288,77.125-12.821   c14.833,0.259,29.528,1.979,44.18,4.178c15.941,2.39,31.868,4.909,47.847,7.052c10.839,1.454,21.776,1.916,32.724,1.724   c0.313-0.008,0.627-0.054,1.156-0.101c-14.515-57.405-29.008-114.731-43.501-172.058c0.096-0.031,0.192-0.062,0.288-0.093   c0.868,2.039,1.63,4.127,2.625,6.103c1.716,3.4,3.432,6.816,5.42,10.057c1.547,2.522,3.836,4.341,6.691,5.418   c0.55,0.207,1.011,1.106,1.19,1.774c2.765,10.292,5.391,20.622,8.21,30.898c10.367,37.781,20.814,75.541,31.185,113.324   c2.623,9.559,5.072,19.166,7.602,28.753C536.089,430.402,536.159,430.758,536.283,431.302z"
   id="path7" />&#10;	<path
   fill-rule="evenodd"
   clip-rule="evenodd"
   fill="#FFFFFF"
   d="M299.97,406.317c-8.6,3.974-13.341,11.184-17.513,18.819   c-1.149,2.104-2.255,2.775-4.698,2.633c-26.897-1.578-53.79-0.884-80.68,0.392c-31.009,1.47-61.99,3.61-93.047,3.869   c-8.755,0.075-17.512-0.15-26.269-0.241c-0.367-0.005-0.733-0.033-1.281-0.06c0.143-0.638,0.245-1.189,0.39-1.731   c11.439-42.762,22.896-85.518,34.317-128.283c3.952-14.803,7.823-29.625,11.689-44.451c0.321-1.235,0.838-1.924,2.113-2.376   c2.471-0.875,4.453-2.627,5.752-4.837c2.194-3.736,4.121-7.632,6.091-11.495c0.764-1.498,1.337-3.092,2.313-4.539   c-14.478,57.26-28.954,114.521-43.459,171.888c4.523,0,8.868,0.109,13.205-0.019c18.115-0.539,36.052-2.907,53.969-5.439   c21.753-3.071,43.508-6.08,65.551-6.07c23.914,0.011,47.212,3.748,69.893,11.334C298.753,405.861,299.192,406.035,299.97,406.317z"
   id="path8" />&#10;	<path
   fill-rule="evenodd"
   clip-rule="evenodd"
   fill="#FFFFFF"
   d="M58.451,443.743c2.75-9.149,5.414-18.029,8.087-26.905   c16.76-55.631,33.525-111.258,50.255-166.897c0.379-1.26,0.861-1.803,2.263-1.748c3.068,0.117,6.146,0.036,9.332,0.385   c-1.782,0.775-3.533,1.635-5.356,2.297c-1.321,0.481-1.986,1.238-2.371,2.625c-16.695,60.285-33.435,120.559-50.166,180.836   c-0.138,0.497-0.246,1.003-0.405,1.661c0.724,0,1.297,0.008,1.869-0.003c36.509-0.677,73.019-1.268,109.524-2.058   c31.146-0.674,62.287-1.57,93.429-2.402c1.347-0.037,2.385,0.271,3.475,1.106c5.523,4.22,10.367,3.778,14.979-1.418   c1.539-1.733,2.72-3.781,4.127-5.637c1.757-2.32,3.385-4.782,5.422-6.829c2.735-2.745,5.536-2.654,8.203,0.165   c1.771,1.872,3.181,4.09,4.704,6.187c1.586,2.186,2.963,4.544,4.704,6.597c3.468,4.09,6.907,4.759,11.549,2.032   c2.277-1.335,4.494-1.719,7.047-1.664c47.067,0.984,94.134,1.923,141.2,2.846c19.897,0.391,39.797,0.721,59.697,1.075   c0.577,0.011,1.155,0,1.951,0c-0.161-0.663-0.274-1.202-0.42-1.731c-16.063-57.822-32.13-115.64-48.196-173.46   c-0.708-2.553-1.452-5.099-2.087-7.672c-0.27-1.09-0.818-1.695-1.874-2.091c-1.972-0.744-3.89-1.639-5.834-2.81   c1.009,0,2.017,0,3.027,0c2.175,0,4.354,0.071,6.526-0.027c1.226-0.056,1.721,0.364,2.076,1.549   c4.39,14.733,8.846,29.445,13.28,44.164c14.832,49.234,29.665,98.47,44.495,147.706c0.194,0.643,0.36,1.296,0.586,2.112   c-0.674,0-1.141,0.008-1.606,0c-50.786-0.692-101.572-1.382-152.361-2.076c-23.03-0.313-46.061-0.625-69.091-0.969   c-1.198-0.019-2.052,0.267-2.904,1.168c-3.478,3.688-7.323,6.923-11.921,9.168c-6.436,3.144-12.866,3.139-19.299-0.003   c-4.499-2.195-8.287-5.342-11.694-8.944c-1.005-1.065-2.011-1.418-3.452-1.396c-44.736,0.658-89.473,1.274-134.21,1.889   c-29.028,0.399-58.058,0.783-87.086,1.172C59.506,443.748,59.088,443.743,58.451,443.743z"
   id="path9" />&#10;	<path
   fill-rule="evenodd"
   clip-rule="evenodd"
   fill="#FFFFFF"
   d="M450.861,225.527c-4.696,1.656-9.204,3.346-13.775,4.833   c-7.382,2.4-14.9,4.138-22.684,4.703c-7.21,0.523-14.159-0.864-21.084-2.507c-7.944-1.884-15.833-4-23.795-5.795   c-11.191-2.527-22.405-1.891-33.447,0.809c-8.742,2.136-17.347,4.84-26.013,7.295c-0.499,0.141-0.991,0.302-1.958,0.6   c0.484-0.416,0.593-0.544,0.729-0.619c11.643-6.396,23.811-11.35,36.975-13.641c12.3-2.141,24.527-1.583,36.694,0.911   c8.257,1.692,16.465,3.617,24.726,5.304c16.004,3.271,29.8-0.987,41.424-12.411c0.871-0.855,1.744-1.709,2.598-2.581   c0.813-0.831,1.602-1.687,2.487-2.621c19.39,64.577,38.748,129.05,58.184,193.78c-3.183-0.755-6.194-1.517-9.229-2.178   c-19.058-4.162-38.068-8.576-57.2-12.367c-17.116-3.391-34.471-4.777-51.945-3.958c-17.629,0.824-34.861,4.059-51.755,9.043   c-9.194,2.713-18.259,5.865-27.384,8.822c-0.483,0.155-0.969,0.311-1.554,0.179c4.744-1.949,9.468-3.947,14.235-5.837   c15.661-6.202,31.663-11.251,48.313-14.063c14.252-2.408,28.587-2.95,42.992-1.897c21.437,1.565,42.412,5.979,63.421,10.193   c6.86,1.376,13.716,2.786,20.576,4.176c0.296,0.06,0.604,0.06,1.053,0.101C485.886,338.952,468.376,282.247,450.861,225.527z"
   id="path10" />&#10;	<path
   fill-rule="evenodd"
   clip-rule="evenodd"
   fill="#FFFFFF"
   d="M302.256,235.487c-6.887-2.459-13.713-5.075-20.653-7.345   c-20.33-6.648-41.199-9.468-62.575-8.387c-15.084,0.762-29.953,3.141-44.729,6.132c-8.314,1.682-16.59,3.551-24.894,5.284   c-1.174,0.245-1.748,0.704-2.047,1.945c-11.917,49.372-23.877,98.732-35.829,148.095c-0.933,3.854-1.847,7.713-2.824,11.803   c3.341-0.389,6.485-0.754,9.631-1.119c18.177-2.112,36.338-4.373,54.534-6.296c15.795-1.669,31.65-2.255,47.535-1.542   c25.097,1.127,49.296,6.171,72.283,16.52c0.527,0.236,1.044,0.498,1.488,0.949c-0.468-0.171-0.94-0.329-1.403-0.514   c-13.828-5.513-28.204-8.814-42.947-10.645c-21.647-2.688-43.311-2.229-64.987-0.378c-22.006,1.882-43.807,5.256-65.573,8.895   c-5.857,0.98-11.715,1.962-17.573,2.937c-0.458,0.078-0.924,0.106-1.627,0.187c0.645-2.591,1.229-4.988,1.84-7.381   c13.993-54.863,27.993-109.724,41.965-164.592c0.279-1.096,0.71-1.667,1.877-1.95c15.972-3.881,31.938-7.774,48.177-10.428   c16.496-2.695,33.06-4.13,49.776-2.704c21.186,1.808,40.726,8.361,58.362,20.353C302.144,235.36,302.208,235.442,302.256,235.487z"
   id="path11" />&#10;	<path
   fill-rule="evenodd"
   clip-rule="evenodd"
   fill="#FFFFFF"
   d="M305.496,239.458c3.747,54.591,5.098,109.169,0.398,163.763   c-2.786-27.235-3.833-54.542-3.739-81.901C302.249,293.989,303.451,266.702,305.496,239.458z"
   id="path12" />&#10;	<path
   fill-rule="evenodd"
   clip-rule="evenodd"
   fill="#FFFFFF"
   d="M306.75,406.286c1.796,0.796,3.931,1.332,5.555,2.551   c2.697,2.023,5.325,4.264,7.52,6.811c3.454,4.01,6.554,8.328,9.733,12.568c0.814,1.08,1.75,2.412,0.808,3.778   c-1.001,1.454-2.619,1.12-4.087,0.77c-1.948-0.461-3.399-1.526-4.395-3.349c-2.605-4.758-5.594-9.26-9.4-13.169   c-0.739-0.759-1.482-1.523-2.294-2.202c-2.307-1.929-4.093-2.09-6.417-0.143c-2.103,1.757-4.161,3.67-5.812,5.839   c-2.368,3.112-4.408,6.482-6.474,9.813c-1.524,2.462-4.252,3.908-7.094,3.502c-1.974-0.285-2.719-1.556-1.982-3.419   c0.155-0.392,0.347-0.78,0.583-1.128c3.96-5.852,8.099-11.574,13.344-16.361c1.748-1.597,3.713-3.001,5.743-4.223   C303.354,407.157,304.931,406.9,306.75,406.286z"
   id="path13" />&#10;	<g
   id="g16">&#10;		<path
   opacity="0.5"
   fill="#FFFFFF"
   d="M307.327,338.953c7.072-20.088,14.664-39.98,22.112-59.932    c8.771,14.406,16.785,29.292,23.806,44.63c8.06,1.911,9.013,4.486,17.128,4.292c6.485-20.961,12.16-42.001,17.065-63.388    c3.923-9.479,7.173-19.444,14.099-27.265c10.945,11.474,19.674,24.516,28.557,37.599c9.832,2.86,14.462,4.037,22.629,6.515    c1.023-19.288,0.805-37.813-1.464-57.007c4.094,13.696,8.233,27.377,12.4,41.051c8.707,28.43,17.464,56.844,26.025,85.318    c-1.205,11.837-3.529,24.771-10.538,34.703c-8.807-4.684-18.086-8.438-27.596-11.428c-13.179-11.863-22.951-24.26-32.445-39.157    c-6.578,6.927-14.381,12.593-22.577,17.447c-6.49,9.85-14.833,18.508-24.602,25.132c-8.414-0.246-8.854-1.308-17.7-2.629    c-10.046-12.048-17.064-26.343-24.222-40.19C320.08,335.682,314.851,336.668,307.327,338.953"
   id="path14" />&#10;		<path
   opacity="0.33"
   fill="#FFFFFF"
   d="M307.327,338.953c7.046-16.877,14.701-33.452,22.369-50.053    c8.53,14.789,16.482,29.924,23.729,45.384c8.129,2.433,8.896,5.244,17.206,5.65c7.225-19.701,13.16-39.642,18.136-60.021    c4.645-10.693,8.683-21.741,14.227-32.018c10.969,14.91,21.006,30.478,31.221,45.906c10.234,3.237,15.015,4.589,23.561,7.336    c1.338-18.776,1.601-36.98-0.074-55.74c2.376,8.017,3.57,12.025,5.959,20.049c6.48,21.167,12.987,42.326,19.441,63.501    c-1.101,14.399-2.463,28.558-7.51,42.218c-8.652-3.594-17.542-6.598-26.532-9.223c-12.84-14.682-23.569-29.441-33.654-46.122    c-5.646,8.709-12.648,16.478-20.418,23.339c-6.674,12.335-13.72,23.643-23.313,33.947c-8.561-0.917-8.973-2.827-17.616-5.008    c-9.128-13.569-16.519-28.206-23.996-42.718C320.215,330.118,314.944,332.984,307.327,338.953"
   id="path15" />&#10;		<path
   fill="none"
   stroke="#FFFFFF"
   stroke-width="3"
   stroke-linejoin="round"
   stroke-miterlimit="10"
   d="M307.327,338.953    c6.768-11.067,14.628-21.419,22.668-31.582c7.973,15.064,15.805,30.202,23.748,45.281c8.336,2.82,8.845,5.585,17.407,6.721    c8.408-15.815,15.003-32.036,20.648-49.017c6.383-10.078,11.779-20.716,16.576-31.628c10.917,17.563,21.886,34.818,33.869,51.697    c10.825,3.307,15.824,4.738,24.996,7.754c2.346-16.862,3.876-33.656,3.168-50.704"
   id="path16" />&#10;	</g>&#10;	&#10;<g
   id="g19"
   inkscape:path-effect="#path-effect19"><path
     d="m 162.60216,250.39762 c 2.94522,-0.56919 7.21269,-1.40416 10.91403,-2.10027 3.65139,-0.68672 6.57455,-1.1989 6.57455,-1.1989 5.26177,-0.92392 8.97428,-2.93888 9.18634,-5.13485 0.21024,-2.17703 -3.20921,-3.16476 -8.4311,-2.38895 -5.80947,0.8631 -17.35699,2.65754 -17.35699,2.65754 -5.16816,0.77144 -8.67277,2.89882 -8.96522,5.47718 -0.29772,2.62488 2.85433,3.69783 8.07839,2.68825 z"
     id="path10-3"
     style="fill:#ffffff;fill-opacity:1;stroke-width:0.70768"
     inkscape:original-d="m 154.14747,251.78843 h 17.45301 c 5.23582,0 8.72601,-1.67146 8.72601,-4.17891 0,-2.50744 -3.49019,-4.1789 -8.72601,-4.1789 h -17.45301 c -5.2358,0 -8.72601,1.67146 -8.72601,4.1789 0,2.50745 3.49021,4.17891 8.72601,4.17891 z" /><path
     d="m 158.37311,271.63947 c 6.46452,-1.71192 14.34852,-3.81865 22.29493,-5.52667 7.42755,-1.59649 13.32676,-2.43765 13.32676,-2.43765 5.32197,-0.78419 9.19012,-2.6297 9.67783,-4.95905 0.48204,-2.30225 -2.71726,-3.59177 -7.98563,-2.88544 -6.77072,0.90776 -13.78788,2.20773 -22.08687,4.06826 -7.39301,1.65741 -13.26305,3.12969 -13.26305,3.12969 -5.28378,1.27945 -9.15753,3.84597 -9.78435,6.51033 -0.63044,2.67562 2.46407,3.51898 7.82038,2.10053 z"
     id="path11-6"
     style="fill:#ffffff;fill-opacity:1;stroke-width:0.70768"
     inkscape:original-d="m 154.14747,272.68393 h 34.90503 c 5.2358,0 8.72599,-1.67147 8.72599,-4.17891 0,-2.50744 -3.49019,-4.1789 -8.72599,-4.1789 h -34.90503 c -5.2358,0 -8.72601,1.67146 -8.72601,4.1789 -0.001,2.50744 3.49021,4.17891 8.72601,4.17891 z" /><path
     d="m 141.50627,337.20545 c 9.69006,-2.62738 24.1136,-7.61098 36.20083,-10.55297 12.10057,-2.94522 21.8529,-3.70069 21.8529,-3.70069 5.87572,-0.5084 9.97179,-2.11602 10.29645,-4.64588 0.32148,-2.50513 -3.31736,-4.22435 -9.09728,-3.74844 -11.43438,0.94148 -22.1866,3.36112 -35.85946,7.49631 -5.95014,1.79954 -11.30868,3.52689 -15.18934,4.71002 -3.88111,1.18327 -6.27952,1.84934 -6.27952,1.84934 -5.73646,1.61505 -10.06251,4.15211 -10.66271,6.67354 -0.60325,2.52982 2.91522,3.4976 8.73813,1.91877 z"
     id="path13-5"
     style="fill:#ffffff;fill-opacity:1;stroke-width:0.70768"
     inkscape:original-d="m 154.14747,335.36994 h 52.35805 c 5.23581,0 8.726,-1.67146 8.726,-4.1789 0,-2.50744 -3.49019,-4.17891 -8.726,-4.17891 h -52.35805 c -5.2358,0 -8.72601,1.67147 -8.72601,4.17891 -0.001,2.50744 3.49021,4.1789 8.72601,4.1789 z" /><path
     d="m 278.61206,326.55828 c -7.71974,-1.55102 -14.83151,-3.5295 -24.29812,-5.9144 -8.16441,-2.05685 -14.6768,-3.38151 -14.6768,-3.38151 -5.85503,-1.17609 -9.95766,-0.0383 -10.20358,2.45105 -0.24786,2.50888 3.55067,4.69832 9.50098,5.89888 8.21351,1.6572 14.90501,3.46676 24.72766,6.01073 8.23606,2.13305 14.69898,3.504 14.69898,3.504 5.84909,1.19307 9.70057,-0.13434 9.74287,-2.71788 0.0434,-2.58353 -3.7309,-4.69337 -9.49199,-5.85087 z"
     id="path14-3"
     style="fill:#ffffff;fill-opacity:1;stroke-width:0.70768"
     inkscape:original-d="m 276.31556,327.01164 h -34.90501 c -5.23582,0 -8.72601,1.67147 -8.72601,4.17891 0,2.50744 3.49019,4.1789 8.72601,4.1789 h 34.90501 c 5.23582,0 8.72601,-1.67146 8.72601,-4.1789 0.001,-2.50695 -3.49019,-4.17891 -8.72601,-4.17891 z" /><path
     d="m 207.20584,281.81935 c 6.29893,-0.32471 13.3761,-0.2386 21.57179,0.63415 8.20748,0.87401 16.0225,2.36811 23.84328,4.08362 7.56285,1.65893 14.35452,3.29657 19.24737,4.33812 4.89185,1.04134 7.89095,1.54255 7.89095,1.54255 5.41604,0.94268 9.00822,-0.46976 9.05055,-3.05589 0.0424,-2.58916 -3.46911,-4.59292 -8.74845,-5.46464 -11.76813,-1.94313 -29.46209,-6.6341 -44.28407,-8.6912 -14.83317,-2.05866 -26.75649,-1.37439 -26.75649,-1.37439 -5.35394,0.23391 -9.34222,2.29859 -9.92155,4.7126 -0.58307,2.42537 2.65954,3.55589 8.10663,3.27508 z"
     id="path15-5"
     style="fill:#ffffff;fill-opacity:1;stroke-width:0.70768"
     inkscape:original-d="m 206.50552,293.57943 h 69.81108 c 5.2358,0 8.72599,-1.67146 8.72599,-4.1789 0,-2.50745 -3.49019,-4.17891 -8.72599,-4.17891 h -69.81108 c -5.2358,0 -8.72601,1.67147 -8.72601,4.17891 -10e-4,2.50694 3.49021,4.1789 8.72601,4.1789 z" /><path
     d="m 152.61144,293.54535 c 4.48252,-1.31586 6.94391,-2.06671 11.42643,-3.38257 3.80128,-1.11085 6.83349,-1.94368 6.83349,-1.94368 5.4662,-1.50189 9.52792,-4.03135 10.16548,-6.5308 0.64054,-2.51117 -2.53771,-3.40455 -7.95072,-2.00006 -6.00102,1.55706 -18.08123,5.05367 -18.08123,5.05367 -5.42083,1.55204 -9.56334,4.30764 -10.31571,6.96048 -0.75735,2.66703 2.41157,3.46065 7.92226,1.84296 z"
     id="path17"
     style="fill:#ffffff;fill-opacity:1;stroke-width:0.70768"
     inkscape:original-d="m 154.14747,293.57943 h 17.45301 c 5.23582,0 8.72601,-1.67146 8.72601,-4.1789 0,-2.50745 -3.49019,-4.17891 -8.72601,-4.17891 h -17.45301 c -5.2358,0 -8.72601,1.67147 -8.72601,4.17891 -0.001,2.50694 3.49021,4.1789 8.72601,4.1789 z" /><path
     d="m 279.30896,305.20432 c -3.54849,-0.66042 -7.27526,-1.47661 -11.62954,-2.50235 -3.89271,-0.917 -7.01319,-1.68501 -7.01319,-1.68501 -5.60061,-1.35737 -9.54355,-0.59622 -9.78755,1.87381 -0.24192,2.44885 3.41106,5.01105 9.15721,6.44308 3.29481,0.82111 7.83357,1.96167 11.89527,2.89357 3.95305,0.90697 7.08878,1.50939 7.08878,1.50939 5.66467,1.0933 9.39412,-0.26561 9.43645,-2.85135 0.0424,-2.58749 -3.60574,-4.64977 -9.14743,-5.68114 z"
     id="path18"
     style="fill:#ffffff;fill-opacity:1;stroke-width:0.70768"
     inkscape:original-d="m 276.31556,306.11663 h -17.45302 c -5.23581,0 -8.726,1.67147 -8.726,4.1789 0,2.50744 3.49019,4.17891 8.726,4.17891 h 17.45302 c 5.23582,0 8.72601,-1.67147 8.72601,-4.17891 0,-2.50743 -3.49019,-4.1789 -8.72601,-4.1789 z" /><path
     d="m 146.66739,315.55359 c 7.73618,-2.26183 14.5339,-4.53236 22.27008,-6.79418 8.51897,-2.47882 16.40137,-4.38863 24.57047,-5.58725 15.65001,-2.29627 28.34248,-0.96084 28.34248,-0.96084 5.72693,0.44714 9.73726,-0.53179 10.09154,-2.98758 0.34648,-2.40172 -3.16374,-4.644 -8.75802,-5.09525 -6.43571,-0.51912 -13.79296,-0.66568 -22.11402,0.099 -8.37966,0.77 -16.32652,2.32808 -24.28343,4.36557 -7.28844,1.86632 -15.03418,4.28458 -19.65412,5.70655 -5.028,1.54757 -8.13592,2.47029 -8.13592,2.47029 -5.57609,1.64901 -9.86684,4.36847 -10.59422,6.9703 -0.73088,2.61434 2.59339,3.47169 8.26516,1.81344 z"
     id="path19"
     style="fill:#ffffff;fill-opacity:1;stroke-width:0.70768"
     inkscape:original-d="m 154.14747,314.47444 h 69.81108 c 5.2358,0 8.72599,-1.67147 8.72599,-4.17891 0,-2.50743 -3.49019,-4.1789 -8.72599,-4.1789 h -69.81108 c -5.2358,0 -8.72601,1.67147 -8.72601,4.1789 0,2.50744 3.49021,4.17891 8.72601,4.17891 z" /><path
     d="m 278.0198,348.02633 c -7.44013,-1.51664 -13.99109,-3.34893 -23.6197,-5.82146 -9.18783,-2.35935 -17.53062,-4.28957 -26.31263,-5.53142 -16.72479,-2.36502 -29.94862,-0.89993 -29.94862,-0.89993 -5.94342,0.52039 -10.1053,3.00533 -10.34407,5.58279 -0.24206,2.61296 3.6193,3.66973 9.63889,3.16546 6.94625,-0.5819 14.8148,-0.70084 23.89516,0.17816 9.12347,0.88319 17.77489,2.59988 26.46821,4.6718 8.39118,1.99992 15.91103,4.04356 21.31558,5.35002 5.40302,1.30608 8.703,1.94208 8.703,1.94208 5.95234,1.18794 9.89388,-0.15216 9.93608,-2.73048 0.0422,-2.57931 -3.82699,-4.70332 -9.7319,-5.90702 z"
     id="path20"
     style="fill:#ffffff;fill-opacity:1;stroke-width:0.70768"
     inkscape:original-d="m 276.31556,347.90715 h -69.81107 c -5.23581,0 -8.726,1.67146 -8.726,4.1789 0,2.50744 3.49019,4.1789 8.726,4.1789 h 69.81107 c 5.23582,0 8.72601,-1.67146 8.72601,-4.1789 0,-2.50744 -3.49019,-4.1789 -8.72601,-4.1789 z" /><path
     d="m 137.70939,358.14203 c 3.81159,-0.9013 7.74292,-1.9622 12.38302,-3.27335 4.13191,-1.16754 7.43803,-2.11975 7.43803,-2.11975 5.96849,-1.69801 10.11322,-4.45152 10.4227,-7.03177 0.31125,-2.59502 -3.40403,-3.21469 -9.28114,-1.4661 -3.1415,0.93467 -8.30916,2.49935 -12.26603,3.62971 -4.09065,1.16857 -7.3628,1.99157 -7.3628,1.99157 -5.88236,1.48038 -10.15534,3.77466 -10.57178,6.19484 -0.4173,2.42516 3.29201,3.48086 9.238,2.07485 z"
     id="path21"
     style="fill:#ffffff;fill-opacity:1;stroke-width:0.70768"
     inkscape:original-d="m 154.14747,356.26544 h 17.45301 c 5.23582,0 8.72601,-1.67147 8.72601,-4.17891 0,-2.50744 -3.49019,-4.1789 -8.72601,-4.1789 h -17.45301 c -5.2358,0 -8.72601,1.67146 -8.72601,4.1789 0,2.50744 3.49021,4.17891 8.72601,4.17891 z" /><path
     d="m 135.47343,378.10589 c 7.97316,-1.52775 13.81153,-2.99378 23.96275,-5.20209 9.27871,-2.0185 17.78331,-3.62311 26.68782,-4.62834 17.00141,-1.91929 30.58907,-0.65887 30.58907,-0.65887 6.11481,0.44002 10.22913,-0.92619 10.30193,-3.7855 0.0728,-2.8593 -3.93275,-5.33652 -10.02675,-5.7656 -7.02366,-0.49453 -14.98883,-0.56676 -24.11564,0.30157 -9.1783,0.87323 -17.85195,2.52918 -26.56007,4.55421 -8.40649,1.95489 -15.9412,3.98364 -21.3707,5.31346 -5.42883,1.32966 -8.75794,2.01469 -8.75794,2.01469 -5.98986,1.26207 -10.15863,3.34353 -10.3799,5.64999 -0.22356,2.31869 3.64777,3.3603 9.66943,2.20648 z"
     id="path22"
     style="fill:#ffffff;fill-opacity:1;stroke-width:0.70768"
     inkscape:original-d="m 154.14747,377.16045 h 69.81108 c 5.2358,0 8.72599,-1.67146 8.72599,-4.1789 0,-2.50744 -3.49019,-4.17891 -8.72599,-4.17891 h -69.81108 c -5.2358,0 -8.72601,1.67147 -8.72601,4.17891 -0.001,2.50744 3.49021,4.1789 8.72601,4.1789 z" /><path
     d="m 267.54616,367.59941 c -6.01465,-1.37561 -10.0904,-0.58051 -10.14811,2.15746 -0.0577,2.73975 3.94152,5.51491 9.96692,6.77376 6.02253,1.25825 10.04251,0.15568 10.09208,-2.46841 0.0413,-2.18692 -3.89626,-5.0872 -9.91089,-6.46281 z"
     id="path27"
     style="fill:#ffffff;fill-opacity:1;stroke-width:0.70768"
     inkscape:original-d="m 267.58957,368.80264 c -5.23581,0 -8.726,1.67147 -8.726,4.17891 0,2.50744 3.49019,4.1789 8.726,4.1789 5.2358,0 8.72599,-1.67146 8.72599,-4.1789 0,-2.0897 -3.49019,-4.17891 -8.72599,-4.17891 z" /></g><path
   d="m 259.86233,219.50125 c -0.9151,3.39897 -1.66691,7.50796 -2.24336,11.9677 -0.51587,3.99104 -0.74552,6.81553 -0.74552,6.81553 -0.9128,-1.09944 -1.72559,-2.32126 -2.65202,-4.16133 -0.83765,-1.66373 -1.54409,-3.36435 -1.54409,-3.36435 -0.37399,-1.06982 -1.05396,-1.46251 -1.76939,-1.51097 -0.71469,-0.0484 -1.4607,0.24593 -1.99299,0.91914 -1.15733,1.86053 -2.3671,3.59126 -3.9553,5.18323 -1.40356,1.40689 -2.62626,2.26208 -2.62626,2.26208 0.71634,-3.73875 0.93303,-6.87097 1.33962,-12.24337 0.33962,-4.48761 0.86891,-7.48089 0.86891,-7.48089 5.194,-0.0334 10.2354,0.93271 15.3204,1.61323 z m -20.57264,-1.19909 c -1.10709,8.46463 -3.32061,25.38882 -3.32061,25.38882 -0.14757,1.12828 0.35698,2.3849 1.09201,2.83969 0.66846,0.70736 1.51145,0.36476 2.34443,-0.19675 1.57656,-1.31611 4.42445,-2.78532 6.70952,-4.44722 2.28176,-1.65949 3.87039,-3.68207 3.87039,-3.68207 1.0599,2.34387 1.97076,4.02354 3.5103,5.74976 1.37654,1.54346 3.10952,3.02103 3.10952,3.02103 0.60417,0.6815 1.67733,0.84878 2.7852,0.73492 0.36431,-0.0375 0.73807,-0.0759 1.10351,-0.3863 1.45705,-0.42995 2.45277,-1.63957 2.35911,-2.73076 -0.1678,-1.955 -0.48346,-4.69614 -0.56322,-7.29024 -0.0869,-2.82731 0.0887,-5.35756 0.54438,-8.0568 0.41854,-2.47936 1.06122,-4.9377 1.46641,-6.52184 0.42556,-1.66371 0.66859,-2.68539 0.66859,-2.68539"
   id="path1"
   style="fill:#ffffff;fill-opacity:1;stroke-width:0.307918"
   inkscape:path-effect="#path-effect20"
   inkscape:original-d="m 259.71399,220.03901 v 16.29102 l -5.78054,-7.35708 c -0.52562,-0.78827 -1.31389,-1.05093 -2.10216,-1.05093 -0.78827,0 -1.57654,0.26266 -2.10216,0.78827 l -5.78054,7.35709 v -16.02837 z m -21.02064,0 v 23.64811 c 0,1.05092 0.78827,2.10216 1.8392,2.36481 1.05092,0.52562 2.10215,0 2.89042,-0.78827 l 8.40832,-10.51017 8.40832,10.51017 c 0.52561,0.78827 1.31388,1.05092 2.10215,1.05092 0.26266,0 0.52562,0 0.78827,-0.26265 1.05093,-0.26265 1.8392,-1.31389 1.8392,-2.36481 v -23.64811"
   transform="matrix(1.6296829,0,0,1.6296829,-156.80545,-136.96773)" /></g>&#10;<path
   id="outline"
   fill="#3674A8"
   d="M587.52,204.656L356.209,71.099L306,42.123l-50.209,28.976L24.48,204.656L0.083,218.728  v353.293l24.396,14.071l234.142,135.225L306,748.629l47.378-27.312L587.52,586.095l24.397-14.07V218.728L587.52,204.656z   M587.52,558.783L306,721.317L24.48,558.783v-325.15L306,71.099l0,0l281.52,162.534V558.783z"
   style="fill:#5b1b1b;fill-opacity:1" />&#10;<text
   xml:space="preserve"
   style="font-size:106.667px;line-height:30.5;font-family:'Noto Color Emoji';-inkscape-font-specification:'Noto Color Emoji';letter-spacing:0px;word-spacing:2.09px"
   x="199.17316"
   y="572.15546"
   id="text20"><tspan
     sodipodi:role="line"
     id="tspan20"
     x="199.17316"
     y="572.15546"
     style="font-style:normal;font-variant:normal;font-weight:600;font-stretch:normal;font-size:106.667px;font-family:'Fira Sans';-inkscape-font-specification:'Fira Sans Semi-Bold';fill:#ffffff;stroke:#000000;stroke-opacity:1">fpp3</tspan></text></svg>
